<svg
   width="360"
   height="640"
   viewBox="0 0 95.25 169.33333"
   xmlns="http://www.w3.org/2000/svg">
  <defs>
    <linearGradient id="linearGradient1460">
      <stop style="stop-color:#8dd35f;stop-opacity:1;" offset="0" />
      <stop style="stop-color:#002b00;stop-opacity:1" offset="1" />
    </linearGradient>
    <linearGradient xlink:href="#linearGradient1460" id="linearGradient1462"
       x1="34.284039" y1="27.427229" x2="82.281693" y2="75.424881" gradientUnits="userSpaceOnUse"
       gradientTransform="matrix(0.88187081,0,0,0.88141143,-37.97406,23.95814)" />
  </defs>
  <g id="layer1">
    <rect
       style="fill:url(#linearGradient1462);stroke-width:4;stroke-linecap:round;stroke:#002b00;"
       width="53.895565"
       height="52.028103"
       x="-19.307802"
       y="38.410358"
       transform="matrix(0.68329413,-0.73014322,0.68991513,0.72389026,0,0)" />
    <g transform="matrix(2.1691361,0,0,2.056889,-60.02018,-52.978855)">
      <path
         style="fill:#002b00;stroke:#002b00;stroke-width:0.50104;stroke-linecap:round"
         d="M 60.518778,45.761738 A 9.9870892,10.583333 0 0 1 50.56655,56.345006 9.9870892,10.583333 0 0 1 40.544843,45.835623 9.9870892,10.583333 0 0 1 50.427106,35.178985 9.9870892,10.583333 0 0 1 60.517804,45.613972" />
      <path
         style="fill:#4d8734;stroke:#002b00;stroke-width:0.50104;stroke-linecap:round"
         d="m 57.239435,-45.514072 a 6.707746,7.1549292 0 0 1 -6.684332,7.154885 6.707746,7.1549292 0 0 1 -6.730997,-7.104935 6.707746,7.1549292 0 0 1 6.637341,-7.204487 6.707746,7.1549292 0 0 1 6.777334,7.054638"
         transform="scale(1,-1)" />
    </g>
    <path style="stroke:#000000;stroke-width:0.264583px" d="m 71.251174,51.873242 v 0" />
    <path
       style="fill:none;stroke:#002b00;stroke-width:3.175;stroke-linecap:round"
       d="m 40.246479,51.873243 v -22.35916 l 10.434272,11.329939 10.13615,-11.329939 v 22.35916 0" />
  </g>
</svg>
